HIERARCHY
ROOT hip
{
  OFFSET 0 0 0
  CHANNELS 6 Xposition Yposition Zposition Zrotation Yrotation Xrotation
  JOINT abdomen
  {
    OFFSET 0 20.6881 -0.73152
    CHANNELS 3 Zrotation Xrotation Yrotation
    JOINT chest
    {
      OFFSET 0 11.7043 -0.48768
      CHANNELS 3 Zrotation Xrotation Yrotation
      JOINT neck
      {
        OFFSET 0 22.1894 -2.19456
        CHANNELS 3 Zrotation Xrotation Yrotation
        JOINT head
        {
          OFFSET -0.24384 7.07133 1.2192
          CHANNELS 3 Zrotation Xrotation Yrotation
          JOINT leftEye
          {
            OFFSET 4.14528 8.04674 8.04672
            CHANNELS 3 Zrotation Xrotation Yrotation
            End Site
            {
              OFFSET 1 0 0
            }
          }
          JOINT rightEye
          {
            OFFSET -3.6576 8.04674 8.04672
            CHANNELS 3 Zrotation Xrotation Yrotation
            End Site
            {
              OFFSET 1 0 0
            }
          }
        }
      }
      JOINT rCollar
      {
        OFFSET -2.68224 19.2634 -4.8768
        CHANNELS 3 Zrotation Xrotation Yrotation
        JOINT rShldr
        {
          OFFSET -8.77824 -1.95073 1.46304
          CHANNELS 3 Zrotation Xrotation Yrotation
          JOINT rForeArm
          {
            OFFSET -28.1742 -1.7115 0.48768
            CHANNELS 3 Zrotation Xrotation Yrotation
            JOINT rHand
            {
              OFFSET -22.5879 0.773209 7.07136
              CHANNELS 3 Zrotation Xrotation Yrotation
              JOINT rThumb1
              {
                OFFSET -1.2192 -0.487915 3.41376
                CHANNELS 3 Zrotation Xrotation Yrotation
                JOINT rThumb2
                {
                  OFFSET -3.37035 -0.52449 3.41376
                  CHANNELS 3 Zrotation Xrotation Yrotation
                  End Site
                  {
                    OFFSET -1.78271 -1.18214 1.43049
                  }
                }
              }
              JOINT rIndex1
              {
                OFFSET -7.75947 0.938293 5.60832
                CHANNELS 3 Zrotation Xrotation Yrotation
                JOINT rIndex2
                {
                  OFFSET -2.54057 -0.884171 1.56538
                  CHANNELS 3 Zrotation Xrotation Yrotation
                  End Site
                  {
                    OFFSET -1.62519 -0.234802 1.16502
                  }
                }
              }
              JOINT rMid1
              {
                OFFSET -8.24714 1.18213 3.41376
                CHANNELS 3 Zrotation Xrotation Yrotation
                JOINT rMid2
                {
                  OFFSET -3.10165 -0.590103 1.0647
                  CHANNELS 3 Zrotation Xrotation Yrotation
                  End Site
                  {
                    OFFSET -2.48547 -0.328903 0.83742
                  }
                }
              }
              JOINT rRing1
              {
                OFFSET -8.82822 0.546677 1.51678
                CHANNELS 3 Zrotation Xrotation Yrotation
                JOINT rRing2
                {
                  OFFSET -2.60934 -0.819778 -0.0198488
                  CHANNELS 3 Zrotation Xrotation Yrotation
                  End Site
                  {
                    OFFSET -2.33842 -0.294052 0.168128
                  }
                }
              }
              JOINT rPinky1
              {
                OFFSET -8.27202 -0.0477905 -0.4584
                CHANNELS 3 Zrotation Xrotation Yrotation
                JOINT rPinky2
                {
                  OFFSET -1.82734 -0.647385 -0.700984
                  CHANNELS 3 Zrotation Xrotation Yrotation
                  End Site
                  {
                    OFFSET -1.69225 -0.51767 -0.607171
                  }
                }
              }
            }
          }
        }
      }
      JOINT lCollar
      {
        OFFSET 2.68224 19.2634 -4.8768
        CHANNELS 3 Zrotation Xrotation Yrotation
        JOINT lShldr
        {
          OFFSET 8.77824 -1.95073 1.46304
          CHANNELS 3 Zrotation Xrotation Yrotation
          JOINT lForeArm
          {
            OFFSET 28.1742 -1.7115 0.48768
            CHANNELS 3 Zrotation Xrotation Yrotation
            JOINT lHand
            {
              OFFSET 22.5879 0.773209 7.07136
              CHANNELS 3 Zrotation Xrotation Yrotation
              JOINT lThumb1
              {
                OFFSET 1.2192 -0.487915 3.41376
                CHANNELS 3 Zrotation Xrotation Yrotation
                JOINT lThumb2
                {
                  OFFSET 3.37035 -0.52449 3.41376
                  CHANNELS 3 Zrotation Xrotation Yrotation
                  End Site
                  {
                    OFFSET 1.78271 -1.18214 1.43049
                  }
                }
              }
              JOINT lIndex1
              {
                OFFSET 7.75947 0.938293 5.60832
                CHANNELS 3 Zrotation Xrotation Yrotation
                JOINT lIndex2
                {
                  OFFSET 2.54057 -0.884171 1.56538
                  CHANNELS 3 Zrotation Xrotation Yrotation
                  End Site
                  {
                    OFFSET 1.62519 -0.234802 1.16502
                  }
                }
              }
              JOINT lMid1
              {
                OFFSET 8.24714 1.18213 3.41376
                CHANNELS 3 Zrotation Xrotation Yrotation
                JOINT lMid2
                {
                  OFFSET 3.10165 -0.590103 1.0647
                  CHANNELS 3 Zrotation Xrotation Yrotation
                  End Site
                  {
                    OFFSET 2.48547 -0.328903 0.83742
                  }
                }
              }
              JOINT lRing1
              {
                OFFSET 8.82822 0.546677 1.51678
                CHANNELS 3 Zrotation Xrotation Yrotation
                JOINT lRing2
                {
                  OFFSET 2.60934 -0.819778 -0.0198488
                  CHANNELS 3 Zrotation Xrotation Yrotation
                  End Site
                  {
                    OFFSET 2.33842 -0.294052 0.168128
                  }
                }
              }
              JOINT lPinky1
              {
                OFFSET 8.27202 -0.0477905 -0.4584
                CHANNELS 3 Zrotation Xrotation Yrotation
                JOINT lPinky2
                {
                  OFFSET 1.82734 -0.647385 -0.700984
                  CHANNELS 3 Zrotation Xrotation Yrotation
                  End Site
                  {
                    OFFSET 1.69225 -0.51767 -0.607171
                  }
                }
              }
            }
          }
        }
      }
    }
  }
  JOINT rButtock
  {
    OFFSET -8.77824 4.35084 1.2192
    CHANNELS 3 Zrotation Xrotation Yrotation
    JOINT rThigh
    {
      OFFSET 0 -1.70687 -2.19456
      CHANNELS 3 Zrotation Xrotation Yrotation
      JOINT rShin
      {
        OFFSET 0 -36.8199 0.73152
        CHANNELS 3 Zrotation Xrotation Yrotation
        JOINT rFoot
        {
          OFFSET 0.73152 -45.1104 -5.12064
          CHANNELS 3 Zrotation Xrotation Yrotation
          End Site
          {
            OFFSET -1.1221 -3.69964 12.103
          }
        }
      }
    }
  }
  JOINT lButtock
  {
    OFFSET 8.77824 4.35084 1.2192
    CHANNELS 3 Zrotation Xrotation Yrotation
    JOINT lThigh
    {
      OFFSET 0 -1.70687 -2.19456
      CHANNELS 3 Zrotation Xrotation Yrotation
      JOINT lShin
      {
        OFFSET 0 -36.8199 0.73152
        CHANNELS 3 Zrotation Xrotation Yrotation
        JOINT lFoot
        {
          OFFSET -0.73152 -45.1104 -5.12064
          CHANNELS 3 Zrotation Xrotation Yrotation
          End Site
          {
            OFFSET 1.1221 -3.69964 12.103
          }
        }
      }
    }
  }
}
MOTION
Frames:	6
Frame Time:	0.00833333
0.0 0.0 0.0 0.0 0.0 0.0 0.0 0.0 0.0 0.0 0.0 0.0 0.0 0.0 0.0 0.0 0.0 0.0 0.0 0.0 0.0 0.0 0.0 0.0 0.0 0.0 0.0 0.0 0.0 0.0 0.0 0.0 0.0 0.0 0.0 0.0 0.0 0.0 0.0 0.0 0.0 0.0 0.0 0.0 0.0 0.0 0.0 0.0 0.0 0.0 0.0 0.0 0.0 0.0 0.0 0.0 0.0 0.0 0.0 0.0 0.0 0.0 0.0 0.0 0.0 0.0 0.0 0.0 0.0 0.0 0.0 0.0 0.0 0.0 0.0 0.0 0.0 0.0 0.0 0.0 0.0 0.0 0.0 0.0 0.0 0.0 0.0 0.0 0.0 0.0 0.0 0.0 0.0 0.0 0.0 0.0 0.0 0.0 0.0 0.0 0.0 0.0 0.0 0.0 0.0 0.0 0.0 0.0 0.0 0.0 0.0 0.0 0.0 0.0 0.0 0.0 0.0 0.0 0.0 0.0 0.0 0.0 0.0 0.0 0.0 0.0 0.0 0.0 0.0 0.0 0.0 0.0
0.010799999999999999 62.12220000000001 0.1116 -179.725964 -66.537476 178.815759 -0.204069 -0.945279 167.817242 3.453152 -12.398106 -163.056061 0.02264 -0.011856 -170.207172 11.159014 54.342544 165.045795 36.763937 -0.122219 -0.367789 31.025587 -7.869211 -27.834843 55.71541 41.062505 19.422314 94.561176 -81.94502 77.571423 -136.577609 -85.399692 37.853848 166.661107 -5.314961 89.240695 2.875374 -13.757758 33.917903 -129.454582 45.458644 -118.686022 -153.326357 13.203014 -156.120942 -179.672336 28.451955 174.69177 100.54738 31.594475 -101.351464 9.340693 2.728978 -0.271043 87.712681 20.555897 -79.744751 -154.689322 -0.056263 175.679998 50.226044 12.665512 -62.373347 -175.097314 78.980754 -142.394215 88.839795 -44.461119 -167.365736 168.795405 -14.828259 -173.582237 173.836265 69.390968 12.68256 -172.27614 4.762421 -112.127841 88.387137 28.738206 -36.193679 -74.12294 -66.631527 -27.186875 160.678538 -1.472282 -97.557361 9.658549 37.005547 -2.596341 89.432072 53.264614 -70.429643 168.171151 -6.018651 -137.115153 -91.766289 -6.612339 75.624947 159.642175 1.667981 -175.223366 -85.300488 -10.476408 60.859412 -0.580395 -2.270284 2.49694 16.882194 -47.22938 21.299116 -2.963036 51.337829 -0.0 -4.579892 0.028711 -84.950688 56.611188 -56.296682 -117.770872 -41.844116 38.771323 -122.056994 2.70342 56.196386 9.473003 5.551793 -4.860146 67.11896 71.10388 -23.940601 -110.242161
-0.3095 62.224500000000006 0.49829999999999997 177.636754 51.649586 -179.235627 -10.305849 17.246107 -106.482379 6.60146 1.577537 111.699624 -6.572183 14.931673 -10.387017 12.744193 -29.990762 -14.909333 6.530147 0.471012 8.242212 2.307935 -0.222255 -10.999821 -47.399851 -85.042883 -73.342385 48.135039 42.725384 -46.185176 -175.768635 -29.786759 109.762727 160.733906 -32.627384 141.697721 -1.577883 2.654372 4.50428 -119.342754 -2.514587 111.779311 -106.111279 33.573308 92.37477 -169.349672 -25.0489 120.16872 -170.189157 -48.343962 151.144948 -164.728126 -60.402584 156.16204 -65.611465 78.345558 81.686188 -162.033202 -43.849854 -173.0713 -8.384304 -18.281156 -4.72745 -86.262312 -58.653116 -78.405066 -2.202288 -45.123605 6.375803 -102.26531 38.144219 63.48566 8.430092 2.096933 -108.594592 10.676922 -13.187137 3.128586 -98.478551 -48.405505 -44.799888 26.056382 -11.138836 16.801435 154.266564 -26.471988 -117.226935 1.132185 22.27511 7.204097 -81.675031 -78.888131 -51.574054 -0.592615 8.51121 -3.707736 142.167235 -4.953495 175.223378 -12.260436 26.294717 8.587719 130.145285 -9.834128 129.074002 153.936254 50.075372 152.49241 6.095588 3.365767 3.135954 -60.900644 -46.011612 -53.144218 -42.435066 76.656256 -102.236527 -164.489711 29.429762 -141.995445 1.633942 3.616273 0.845126 33.16876 -27.791565 -84.566568 -66.096886 -10.845849 -170.434908 -25.536802 14.073267 -82.684335
-0.5155 64.29639999999999 1.4118 -177.901771 51.347252 -175.47422 -7.767591 16.014972 -153.690964 2.584351 6.054149 158.29294 -15.696378 25.209156 -72.744634 43.425752 4.574298 50.485873 2.50476 0.143894 6.574828 1.926993 -0.057827 -3.437401 -77.618169 68.852644 83.838565 -3.540935 -3.568654 53.572846 -63.446994 -82.762055 -19.846898 -5.766319 29.600239 1.02077 -120.023956 27.39871 69.858506 -114.361925 -4.679044 68.572357 29.188358 -43.585346 -2.742551 21.931401 -5.833931 -0.245083 0.094048 0.824254 -1.353127 -42.504115 58.325979 36.450403 -146.099147 -2.055537 -177.819673 -151.760005 -43.281293 -170.931208 14.947232 41.173375 6.657617 -172.819574 54.073526 -145.84144 159.401514 -75.795324 -177.989924 -175.044254 -14.714302 127.23905 141.175679 20.894478 -13.847027 176.172608 -30.964388 -152.702015 -3.168467 -0.852987 3.287653 -25.421572 -64.591152 34.734086 178.81572 -72.970451 -121.770301 8.244757 36.208926 -7.027359 3.811515 18.461266 2.696242 16.134428 35.501339 -13.687975 -7.452113 26.606412 5.377918 3.3501 29.010983 -8.44539 155.356009 32.319229 132.529514 168.231007 55.757599 141.910063 -102.765981 62.166025 -50.013976 118.323858 -7.955958 -85.733554 -79.83671 -11.714298 -170.25184 -159.66818 18.292895 99.03704 178.464817 77.468478 2.830461 -139.61267 39.561971 -53.17762 -62.918756 54.36387 -87.290341 -108.523889 21.748288 -167.20083
-0.7041999999999999 65.2481 2.2807 -175.278555 50.468754 -173.623889 -4.6113 16.069113 -152.703179 1.749793 7.184499 157.561302 -15.746028 31.6007 -106.996735 41.137122 25.987792 71.466572 0.83005 -0.02654 -3.662623 -0.676059 0.052385 -8.861412 -5.582089 26.255137 7.774451 55.936535 -10.134409 31.435242 89.45853 -11.785791 64.727261 -164.738569 53.972969 141.910794 3.107167 -3.1023 2.485624 -162.973719 -63.77729 117.266452 124.949516 -73.255218 72.796464 8.504124 16.218822 -1.707147 -86.70786 62.098731 77.756578 2.670548 -0.77213 0.940072 -2.216727 -0.531202 -1.945979 -154.079453 -26.322201 170.62728 8.479206 29.381822 3.85178 -77.522143 -54.470188 -75.126235 82.75744 68.580327 -86.017984 10.901091 4.417412 -77.203686 92.305902 -81.088813 -15.402536 8.696755 -28.224586 5.406925 -3.37976 -0.770218 1.784384 60.555088 36.714071 -55.289457 13.920727 23.318638 -7.498099 -5.041286 4.193854 -1.440946 0.006765 1.806441 2.688318 -12.723338 -19.882322 1.373918 141.918132 -3.454864 173.025424 -12.681369 29.691493 2.014772 2.084665 -1.536204 8.269302 -1.065593 -16.990566 7.917342 0.61989 0.760383 0.628245 -57.520276 -52.160055 -180.0 -76.515053 -50.488447 5.262372 157.221252 -4.601235 -86.55611 155.850077 75.565366 16.488271 -133.21448 31.599451 55.926084 65.636502 -0.834441 -90.203278 92.868741 6.473748 -3.247549
-1.0061 65.3323 2.7437 -178.58348 53.764091 -177.329703 -6.918433 15.073023 -154.98616 -0.134732 6.99819 160.071394 -14.706382 21.6146 -47.46149 33.784731 -12.879831 18.13084 -0.442401 0.031676 -8.190797 -2.323235 0.149797 -7.377374 0.391811 -0.921576 -0.690338 -122.94923 -7.641268 166.054717 5.297794 15.675976 -98.811408 168.365362 -23.14867 143.969795 171.118223 -24.81851 83.498759 -159.015667 -1.542446 92.196793 -0.698254 1.772386 1.991962 -177.820845 -34.423018 105.508672 69.568047 -79.96374 42.400249 -163.491754 -4.347195 144.858069 1.818218 7.04095 0.796742 10.594285 -21.322295 0.50278 -28.873849 -38.128978 -22.859044 -172.57354 53.033207 -133.935551 130.124528 53.736303 -134.516919 -74.334675 -33.961853 -106.490801 -6.861454 -9.120166 -113.496909 13.382273 -10.646598 5.086472 20.411208 16.690869 -7.809188 -58.951761 -63.486635 8.144036 131.282994 13.023981 -109.239017 62.14139 56.311562 -47.106827 2.959575 11.074829 -4.486427 7.402246 26.375297 -4.490505 82.369801 -70.609113 101.860551 157.314199 -19.17792 -175.703195 58.032511 -45.772178 54.520943 121.90483 -20.687468 124.319188 5.379985 1.874974 5.538725 -63.263821 -51.329818 -157.424533 -78.231673 -17.560841 -142.895601 0.857149 26.098892 -115.408849 -127.374337 69.397358 -40.817598 -164.783716 47.33819 22.119052 63.305218 41.12346 25.378717 -163.384935 21.442392 55.363059
